<?xml version="1.0" encoding="utf-8"?>
<!-- Generator: Adobe Illustrator 21.1.0, SVG Export Plug-In . SVG Version: 6.00 Build 0)  -->
<svg version="1.1" id="Layer_1" xmlns="http://www.w3.org/2000/svg" xmlns:xlink="http://www.w3.org/1999/xlink" x="0px" y="0px"
	 viewBox="0 0 816.4 1024" style="enable-background:new 0 0 816.4 1024;" xml:space="preserve">
<style type="text/css">
	.st0{fill:#006AB4;}
</style>
<g>
	<g>
		<path class="st0" d="M726.3-0.3H19.4C9.3-1,0.6,6.4-0.4,16.4v988.3c0.8,10.5,9.3,18.8,19.8,19.2h706.9c49.9-0.6,90-41.2,90-91.1
			V88.3c-0.2-49.1-40.1-88.8-89.2-88.6C726.8-0.3,726.5-0.3,726.3-0.3z M107.5,988h-72V35.7h72V988z M540.8,35.7h72v108.9
			l-25.1-17.3c-2.8-2-6.1-3.1-9.6-3c-3.8,0-7.5,1-10.7,3l-26.7,17.3L540.8,35.7L540.8,35.7z M780.3,932.9c0.1,30-24,54.6-54,55.1
			H143.5V35.7h361.3v142.4c0.4,6.8,4.3,12.8,10.4,15.9c6,3.2,13.3,2.8,19-1l44.3-29.2l44.2,29.2c2.9,2,6.4,3.1,10,3
			c2.7,0,5.3-0.7,7.6-2.1c5.6-3.3,8.9-9.4,8.6-15.9V35.7h77.5c29.2-0.6,53.4,22.6,54,51.8c0,0.3,0,0.5,0,0.8L780.3,932.9
			L780.3,932.9L780.3,932.9z"/>
	</g>
	<g>
		<path class="st0" d="M348.9,794.1c-40.1,0-72-34.2-72-84.7V372.2c0-49.8,31.9-84.7,72-84.7s69.1,34.9,69.1,84.7v94.3h-38.6V363.3
			c0-16.3-10.4-30.5-28.2-30.5c-18.6,0-29,14.1-29,30.5v355c0,17.1,10.4,30.5,29,30.5c17.8,0,28.2-13.4,28.2-30.5v-104H418v95.1
			C418,759.9,389,794.1,348.9,794.1z"/>
		<path class="st0" d="M524.2,794.1c-40.9,0-71.3-34.2-71.3-84.7V293.5h44.6v420.4c0,23,9.7,34.9,27.5,34.9
			c18.6,0,28.2-11.9,28.2-34.9V293.5h42.3v415.9C595.5,759.9,564.3,794.1,524.2,794.1z"/>
	</g>
	<polygon class="st0" points="521.9,26.8 521.9,163.1 580.9,140 630.4,183.8 630.4,26.8 	"/>
</g>
</svg>
