<?xml version="1.0" encoding="utf-8"?>
<!-- Generator: Adobe Illustrator 21.1.0, SVG Export Plug-In . SVG Version: 6.00 Build 0)  -->
<svg version="1.1" id="Layer_1" xmlns="http://www.w3.org/2000/svg" xmlns:xlink="http://www.w3.org/1999/xlink" x="0px" y="0px"
	 viewBox="0 0 816.4 1024" style="enable-background:new 0 0 816.4 1024;" xml:space="preserve">
<style type="text/css">
	.st0{fill:#006AB4;}
</style>
<g>
	<g>
		<g>
			<path class="st0" d="M463.9,310.6c0,0-0.1,0-0.1,0H352.4c0,0-0.1,0-0.1,0c-8.5,0-15.5,6.9-15.5,15.5v108.7
				c0,8.7,7,15.8,15.7,15.9h111.3c8.7-0.1,15.7-7.2,15.7-15.9V326.1C479.4,317.5,472.4,310.6,463.9,310.6z"/>
		</g>
		<g>
			<path class="st0" d="M658.9,310.6c0,0-0.1,0-0.1,0H547.4c0,0-0.1,0-0.1,0c-8.5,0-15.5,6.9-15.5,15.5v108.7
				c0,8.7,7,15.8,15.7,15.9h111.3c8.7-0.1,15.7-7.2,15.7-15.9V326.1C674.4,317.5,667.4,310.6,658.9,310.6z"/>
		</g>
		<g>
			<path class="st0" d="M268.8,310.6c0,0-0.1,0-0.1,0H157.4c0,0-0.1,0-0.1,0c-8.5,0-15.5,6.9-15.5,15.5v108.7
				c0,8.7,7,15.8,15.7,15.9h111.3c8.7-0.1,15.7-7.2,15.7-15.9V326.1C284.3,317.5,277.4,310.6,268.8,310.6z"/>
		</g>
	</g>
	<g>
		<path class="st0" d="M724.3,37.4c-0.3,0-0.5,0-0.8,0h-631c-0.3,0-0.5,0-0.8,0C43.4,37.3,4,76.5,3.8,125.1v808.7
			c0,49.4,39.5,89.6,88.7,90.2h631c49.2-0.6,88.8-40.8,88.7-90.2V125.1C812.1,76.5,772.7,37.3,724.3,37.4z M771.2,941.9v-13.7
			c0.1,29.8-23.7,54.2-53.4,54.7H98.4c-29.7-0.5-53.5-24.9-53.4-54.7c0,0,0-798,0-798.3c0.6-29,24.5-52,53.4-51.4h619.4
			c28.9-0.6,52.8,22.4,53.4,51.4c0,0.3,0,0.5,0,0.8v797.5c0,0,0,0,0,0L771.2,941.9z"/>
	</g>
	<g>
		<path class="st0" d="M249.3,181.1H241c-9.7,0-17.6-7.9-17.6-17.6V18.6C223.4,8.9,231.3,1,241,1h8.3c9.7,0,17.6,7.9,17.6,17.6
			v144.9C266.9,173.2,259,181.1,249.3,181.1z"/>
		<path class="st0" d="M412.2,181.1h-8.3c-9.7,0-17.6-7.9-17.6-17.6V18.6c0-9.7,7.9-17.6,17.6-17.6h8.3c9.7,0,17.6,7.9,17.6,17.6
			v144.9C429.8,173.2,421.9,181.1,412.2,181.1z"/>
		<path class="st0" d="M575.1,181.1h-8.3c-9.7,0-17.6-7.9-17.6-17.6V18.6c0-9.7,7.9-17.6,17.6-17.6l8.3,0c9.7,0,17.6,7.9,17.6,17.6
			v144.9C592.7,173.2,584.8,181.1,575.1,181.1z"/>
	</g>
	<g>
		<path class="st0" d="M463.9,488.8c0,0-0.1,0-0.1,0H352.4c0,0-0.1,0-0.1,0c-8.5,0-15.5,6.9-15.5,15.5v108.7c0,8.7,7,15.8,15.7,15.9
			h111.3c8.7-0.1,15.7-7.2,15.7-15.9V504.2C479.4,495.7,472.4,488.7,463.9,488.8z"/>
	</g>
	<g>
		<path class="st0" d="M658.9,488.8c0,0-0.1,0-0.1,0H547.4c0,0-0.1,0-0.1,0c-8.5,0-15.5,6.9-15.5,15.5v108.7c0,8.7,7,15.8,15.7,15.9
			h111.3c8.7-0.1,15.7-7.2,15.7-15.9V504.2C674.4,495.7,667.4,488.7,658.9,488.8z"/>
	</g>
	<g>
		<path class="st0" d="M268.8,488.8c0,0-0.1,0-0.1,0H157.4c0,0-0.1,0-0.1,0c-8.5,0-15.5,6.9-15.5,15.5v108.7c0,8.7,7,15.8,15.7,15.9
			h111.3c8.7-0.1,15.7-7.2,15.7-15.9V504.2C284.3,495.7,277.4,488.7,268.8,488.8z"/>
	</g>
	<g>
		<g>
			<path class="st0" d="M463.9,666.9c0,0-0.1,0-0.1,0H352.4c0,0-0.1,0-0.1,0c-8.5,0-15.5,6.9-15.5,15.5v108.7
				c0,8.7,7,15.8,15.7,15.9h111.3c8.7-0.1,15.7-7.2,15.7-15.9V682.4C479.4,673.8,472.4,666.9,463.9,666.9z"/>
		</g>
		<g>
			<path class="st0" d="M658.9,666.9c0,0-0.1,0-0.1,0H547.4c0,0-0.1,0-0.1,0c-8.5,0-15.5,6.9-15.5,15.5v108.7
				c0,8.7,7,15.8,15.7,15.9h111.3c8.7-0.1,15.7-7.2,15.7-15.9V682.4C674.4,673.8,667.4,666.9,658.9,666.9z"/>
		</g>
		<g>
			<path class="st0" d="M268.8,666.9c0,0-0.1,0-0.1,0H157.4c0,0-0.1,0-0.1,0c-8.5,0-15.5,6.9-15.5,15.5v108.7
				c0,8.7,7,15.8,15.7,15.9h111.3c8.7-0.1,15.7-7.2,15.7-15.9V682.4C284.3,673.8,277.4,666.9,268.8,666.9z"/>
		</g>
	</g>
</g>
</svg>
