<svg xmlns="http://www.w3.org/2000/svg" xmlns:xlink="http://www.w3.org/1999/xlink" width="46" height="29" viewBox="0 0 46 29">
  <metadata><?xpacket begin="﻿" id="W5M0MpCehiHzreSzNTczkc9d"?>
<x:xmpmeta xmlns:x="adobe:ns:meta/" x:xmptk="Adobe XMP Core 5.6-c138 79.159824, 2016/09/14-01:09:01        ">
   <rdf:RDF xmlns:rdf="http://www.w3.org/1999/02/22-rdf-syntax-ns#">
      <rdf:Description rdf:about=""/>
   </rdf:RDF>
</x:xmpmeta>
                                                                                                    
                                                                                                    
                                                                                                    
                                                                                                    
                                                                                                    
                                                                                                    
                                                                                                    
                                                                                                    
                                                                                                    
                                                                                                    
                                                                                                    
                                                                                                    
                                                                                                    
                                                                                                    
                                                                                                    
                                                                                                    
                                                                                                    
                                                                                                    
                                                                                                    
                                                                                                    
                           
<?xpacket end="w"?></metadata>
<defs>
    <style>
      .cls-1 {
        fill-rule: evenodd;
        filter: url(#filter);
      }
    </style>
    <filter id="filter" x="2839" y="9861" width="46" height="29" filterUnits="userSpaceOnUse">
      <feFlood result="flood" flood-color="#fff"/>
      <feComposite result="composite" operator="in" in2="SourceGraphic"/>
      <feBlend result="blend" in2="SourceGraphic"/>
    </filter>
  </defs>
  <path id="Shape_1_copy_3" data-name="Shape 1 copy 3" class="cls-1" d="M2841.19,9865.61h4.38a2.308,2.308,0,0,0,0-4.61h-4.38A2.308,2.308,0,0,0,2841.19,9865.61Zm0,12.59h4.38a2.308,2.308,0,0,0,0-4.61h-4.38A2.308,2.308,0,0,0,2841.19,9878.2Zm0,11.8h4.38a2.308,2.308,0,0,0,0-4.61h-4.38A2.308,2.308,0,0,0,2841.19,9890Zm12.02-24.39h30.41c0.76,0,1.38-1.03,1.38-2.3s-0.62-2.31-1.38-2.31h-30.41c-0.77,0-1.39,1.03-1.39,2.31S2852.44,9865.61,2853.21,9865.61Zm0,12.59h30.41c0.76,0,1.38-1.04,1.38-2.31s-0.62-2.3-1.38-2.3h-30.41c-0.77,0-1.39,1.03-1.39,2.3S2852.44,9878.2,2853.21,9878.2Zm0,11.8h30.41c0.76,0,1.38-1.03,1.38-2.3s-0.62-2.31-1.38-2.31h-30.41c-0.77,0-1.39,1.03-1.39,2.31S2852.44,9890,2853.21,9890Z" transform="translate(-2839 -9861)"/>
</svg>
