<?xml version="1.0" encoding="utf-8"?>
<!-- Generator: Adobe Illustrator 21.1.0, SVG Export Plug-In . SVG Version: 6.00 Build 0)  -->
<svg version="1.1" id="Layer_1" xmlns="http://www.w3.org/2000/svg" xmlns:xlink="http://www.w3.org/1999/xlink" x="0px" y="0px"
	 viewBox="0 0 816.4 1024" style="enable-background:new 0 0 816.4 1024;" xml:space="preserve">
<style type="text/css">
	.st0{fill:#006AB4;}
</style>
<g>
	<g>
		<path class="st0" d="M463.4,793.8H455c-18.8,0-34.2-15.4-34.2-34.2V250.3c0-18.8,15.4-34.2,34.2-34.2h8.4
			c18.8,0,34.2,15.4,34.2,34.2v509.4C497.6,778.4,482.2,793.8,463.4,793.8z"/>
		<path class="st0" d="M633,432.7H285.5c-18.6,0-33.9-15.2-33.9-33.9v0c0-18.6,15.2-33.9,33.9-33.9H633c18.6,0,33.9,15.2,33.9,33.9
			v0C666.8,417.5,651.6,432.7,633,432.7z"/>
	</g>
	<g>
		<path class="st0" d="M726.4,3H22.7C12.7,2.4,4,9.8,3,19.7v983.9c0.8,10.5,9.2,18.7,19.7,19.2h703.7c49.7-0.6,89.6-41,89.6-90.7
			V91.2C815.8,42.4,776.1,2.9,727.2,3C727,3,726.7,3,726.4,3z M110.5,986.9H38.8v-948h71.7V986.9z M726.4,38.9
			c29.1-0.6,53.1,22.5,53.7,51.6c0,0.3,0,0.5,0,0.8v840.8l0,0l0,0c0.1,29.9-23.8,54.3-53.7,54.8H146.3v-948"/>
	</g>
</g>
</svg>
