<svg xmlns="http://www.w3.org/2000/svg" xmlns:xlink="http://www.w3.org/1999/xlink" width="612" height="612" viewBox="0 0 612 612">
  <metadata><?xpacket begin="﻿" id="W5M0MpCehiHzreSzNTczkc9d"?>
<x:xmpmeta xmlns:x="adobe:ns:meta/" x:xmptk="Adobe XMP Core 5.6-c138 79.159824, 2016/09/14-01:09:01        ">
   <rdf:RDF xmlns:rdf="http://www.w3.org/1999/02/22-rdf-syntax-ns#">
      <rdf:Description rdf:about=""/>
   </rdf:RDF>
</x:xmpmeta>
                                                                                                    
                                                                                                    
                                                                                                    
                                                                                                    
                                                                                                    
                                                                                                    
                                                                                                    
                                                                                                    
                                                                                                    
                                                                                                    
                                                                                                    
                                                                                                    
                                                                                                    
                                                                                                    
                                                                                                    
                                                                                                    
                                                                                                    
                                                                                                    
                                                                                                    
                                                                                                    
                           
<?xpacket end="w"?></metadata>
<defs>
    <style>
      .cls-1 {
        fill-rule: evenodd;
        filter: url(#filter);
      }
    </style>
    <filter id="filter" x="0" y="0" width="612" height="612" filterUnits="userSpaceOnUse">
      <feFlood result="flood" flood-color="#59a34c"/>
      <feComposite result="composite" operator="in" in2="SourceGraphic"/>
      <feBlend result="blend" in2="SourceGraphic"/>
    </filter>
  </defs>
  <path id="Forma_1" data-name="Forma 1" class="cls-1" d="M306,0C136.8,0,0,136.8,0,306S136.8,612,306,612,612,475.2,612,306,475.2,0,306,0Zm0,576C158.4,576,36,453.6,36,306S158.4,36,306,36,576,158.4,576,306,453.6,576,306,576Zm75.6-334.8c0,10.8,7.2,18,18,18s18-7.2,18-18c0-42.084-40.862-75.2-93.6-81.468V144c0-10.8-7.2-18-18-18s-18,7.2-18,18v15.734c-52.74,6.3-93.6,39.384-93.6,81.468s40.862,75.2,93.6,81.468v93.278c-31.825-5.292-57.6-23.868-57.6-45.144,0-10.8-7.2-18-18-18s-18,7.2-18,18c0,42.084,40.862,75.2,93.6,81.468V468c0,10.8,7.2,18,18,18s18-7.2,18-18V452.268c52.74-6.3,93.6-39.384,93.6-81.468s-40.862-75.2-93.6-81.469V196.056C355.826,201.348,381.6,219.924,381.6,241.2Zm-151.2,0c0-21.276,25.775-39.852,57.6-45.144v90.288C256.176,281.052,230.4,262.476,230.4,241.2ZM381.6,370.8c0,21.275-25.775,39.851-57.6,45.144V325.656C355.826,330.948,381.6,349.526,381.6,370.8Z"/>
</svg>
