<?xml version="1.0" encoding="utf-8"?>
<!-- Generator: Adobe Illustrator 21.1.0, SVG Export Plug-In . SVG Version: 6.00 Build 0)  -->
<svg version="1.1" id="Layer_1" xmlns="http://www.w3.org/2000/svg" xmlns:xlink="http://www.w3.org/1999/xlink" x="0px" y="0px"
	 viewBox="0 0 807.8 216.3" style="enable-background:new 0 0 807.8 216.3;" xml:space="preserve">
<style type="text/css">
	.st0{fill:#FFFFFF;}
</style>
<g>
	<path class="st0" d="M78.4,172.5V79.1c0-5.9-2.8-9.9-7.6-9.9c-6.1,0-8.7,7.9-8.7,13.7v89.6H39.2V78.4c0-5.9-3.1-9.9-7.4-9.9
		c-6.1,0-9.2,7.9-9.2,13.7v90.3H0V50.4h20.1l1.8,15.8c3.6-11.7,10.7-17.6,19.8-17.6c9.4,0,15.5,6.9,18.3,17
		c3.8-11.7,11.2-17,20.4-17c13,0,20.6,10.2,20.6,26.7v97.2H78.4z"/>
	<path class="st0" d="M153.7,179.9c-4.6,22.9-9.7,34.9-31.8,34.9h-5.6v-18.8h4.6c7.9,0,9.7-3.3,11.4-11.2l2-14L110.9,50.4h22.1
		l9.2,60l3.1,24.4l2.8-24.4l8.9-60h21.4L153.7,179.9z"/>
	<path class="st0" d="M228.7,175.6c-24.7,0-41-17.3-41-40.5V40.5c0-23.2,16.3-40.5,41-40.5c24.9,0,38.4,16.3,38.4,38.9v24.4h-23.9
		V38.4c0-8.1-4.6-14-14-14s-14,5.9-14,13.7v99.2c0,7.9,4.6,13.7,14,13.7s14-5.9,14-14V112h23.9v24.7
		C267.1,159.3,253.7,175.6,228.7,175.6z"/>
	<path class="st0" d="M304.3,88.5v84h-22.6V50.4h19.6l1.5,17.3c4.1-14.5,13.2-20.4,25.4-18.6v25.2C310.6,72.3,304.3,78.1,304.3,88.5
		z"/>
	<path class="st0" d="M368.6,174.5c-18.3,0-31.5-13.7-31.5-34.6V83.2c0-20.6,13.2-34.6,31.5-34.6c18.6,0,30.3,14,30.3,34.6v31.3
		h-39.7v29c0,6.6,3.3,11.2,9.7,11.2c6.9,0,9.7-4.6,9.7-11.2v-15h20.4v11.7C398.9,160.8,387.2,174.5,368.6,174.5z M378.3,79.9
		c0-6.9-3.1-11.4-9.4-11.4c-6.1,0-9.7,4.6-9.7,11.4v21.6h19.1V79.9z"/>
	<path class="st0" d="M414.2,172.5V50.4h22.6v122.1H414.2z M414.7,34.9V11.2h21.6v23.7H414.7z"/>
	<path class="st0" d="M513.9,61.6c-2.3,0-4.3-0.5-6.9-1.8c5.9,6.1,8.9,13.2,8.9,21.6v15.8c0,18.8-12.7,32.6-31.3,32.6
		c-1.5,0-5.1-0.3-6.4-0.8c-4.6,0-7.6,4.1-7.6,8.4c0,5.1,3.8,8.4,16.5,8.4c22.4,0,33.1,10.7,33.1,28.2v9.7c0,20.1-13,32.6-34.6,32.6
		c-20.1,0-34.6-10.7-34.6-28.8v-8.9c0-8.1,4.6-15,12.7-18.3c-7.6-2.8-12-9.9-12-17c0-8.4,6.9-17,15.8-18.3c-9.4-3.8-14-16.3-14-28.8
		v-15c0-18.8,13.5-32.6,31-32.6c6.1,0,9.7,1.5,11.7,1.5c8.9,0,11.2-5.1,11.2-12.2h16.5c0.8,4.3,0.8,6.6,0.8,9.2
		C524.9,56.7,520,61.6,513.9,61.6z M499.9,175.1c0-6.1-3.8-10.7-14-10.7c-9.4,0-13.7,4.6-13.7,10.7V186c0,6.1,4.6,10.9,13.7,10.9
		c9.7,0,14-5.1,14-11.2V175.1z M494.6,78.6c0-6.4-3.8-10.9-9.9-10.9c-6.1,0-9.7,4.6-9.7,10.9v22.1c0,6.1,3.6,10.9,9.7,10.9
		c6.1,0,9.9-4.8,9.9-10.9V78.6z"/>
	<path class="st0" d="M574,172.5V79.1c0-6.4-3.6-10.7-8.9-10.7c-6.1,0-10.2,7.9-10.2,13.7v90.3h-22.6V3.1h22.6v61.1
		c4.1-9.9,12-15.5,20.9-15.5c13,0,20.9,10.7,20.9,26.7v97.2H574z"/>
	<path class="st0" d="M641.1,70.2v66.9c0,14.2,1,25.2,4.8,35.4h-22.6c-3.6-9.2-5.1-19.1-5.1-35.4V70.2H607V50.4h12.5V30.3l21.6-6.4
		v26.5h13.2v19.8H641.1z"/>
	<path class="st0" d="M695.8,174.5c-18.6,0-31.8-13.2-31.8-34.9v-56c0-21.4,13.2-35.1,31.8-35.1c18.3,0,31.3,13.7,31.3,35.1v56
		C727.1,161.3,714.1,174.5,695.8,174.5z M705.2,79.4c0-6.4-3.8-10.9-9.4-10.9c-6.1,0-9.4,4.6-9.4,10.9V144c0,6.4,3.3,10.7,9.4,10.7
		c5.6,0,9.4-4.3,9.4-10.7V79.4z"/>
	<path class="st0" d="M785.1,172.5V79.1c0-6.4-3.6-10.7-8.7-10.7c-6.4,0-10.4,7.9-10.4,13.7v90.3h-22.6V50.4h20.1l1.3,16
		c4.1-12,12.2-17.8,21.4-17.8c13.7,0,21.6,10.7,21.6,26.7v97.2H785.1z"/>
</g>
</svg>
