<svg xmlns="http://www.w3.org/2000/svg" xmlns:xlink="http://www.w3.org/1999/xlink" width="64" height="75" viewBox="0 0 64 75">
  <metadata><?xpacket begin="﻿" id="W5M0MpCehiHzreSzNTczkc9d"?>
<x:xmpmeta xmlns:x="adobe:ns:meta/" x:xmptk="Adobe XMP Core 5.6-c138 79.159824, 2016/09/14-01:09:01        ">
   <rdf:RDF xmlns:rdf="http://www.w3.org/1999/02/22-rdf-syntax-ns#">
      <rdf:Description rdf:about=""/>
   </rdf:RDF>
</x:xmpmeta>
                                                                                                    
                                                                                                    
                                                                                                    
                                                                                                    
                                                                                                    
                                                                                                    
                                                                                                    
                                                                                                    
                                                                                                    
                                                                                                    
                                                                                                    
                                                                                                    
                                                                                                    
                                                                                                    
                                                                                                    
                                                                                                    
                                                                                                    
                                                                                                    
                                                                                                    
                                                                                                    
                           
<?xpacket end="w"?></metadata>
<defs>
    <style>
      .cls-1 {
        stroke: #0054a6;
        stroke-linejoin: round;
        stroke-width: 1px;
        fill-rule: evenodd;
        filter: url(#filter);
      }
    </style>
    <filter id="filter" x="1063" y="1756" width="63" height="74" filterUnits="userSpaceOnUse">
      <feFlood result="flood" flood-color="#fff"/>
      <feComposite result="composite" operator="in" in2="SourceGraphic"/>
      <feBlend result="blend" in2="SourceGraphic"/>
    </filter>
  </defs>
  <g transform="translate(-1062.5 -1755.5)" style="fill: ; filter: url(#filter)">
    <path id="Rounded_Rectangle_592_copy_4" data-name="Rounded Rectangle 592 copy 4" class="cls-1" d="M1074.31,1761.27h-0.93a10.331,10.331,0,0,0-10.38,10.25v48.23a10.331,10.331,0,0,0,10.38,10.25h42.24a10.331,10.331,0,0,0,10.38-10.25v-48.23a10.331,10.331,0,0,0-10.38-10.25h-0.93m-2.31,0h-4.03v-4.13a1.155,1.155,0,0,0-2.31,0v4.13H1102m-2.31,0h-4.04v-4.13a1.15,1.15,0,0,0-2.3,0v4.13h-4.04m-2.31,0h-4.04v-4.13a1.15,1.15,0,0,0-2.3,0v4.13h-4.04m0,2.28h4.04v3.31a1.15,1.15,0,0,0,2.3,0v-3.31H1087m2.31,0h4.04v3.31a1.15,1.15,0,0,0,2.3,0v-3.31h4.04m2.31,0h4.04v3.31a1.155,1.155,0,0,0,2.31,0v-3.31h4.03m2.31,0h0.93a8.032,8.032,0,0,1,8.07,7.97v48.23h0a8.026,8.026,0,0,1-8.07,7.97h-42.24a8.026,8.026,0,0,1-8.07-7.97v-48.23a8.032,8.032,0,0,1,8.07-7.97h0.93M1079,1779h5.55a2.006,2.006,0,0,1,2,2v6a2.006,2.006,0,0,1-2,2H1079a2.006,2.006,0,0,1-2-2v-6A2.006,2.006,0,0,1,1079,1779Zm12.73,0h5.54a2,2,0,0,1,2,2v6a2,2,0,0,1-2,2h-5.54a2,2,0,0,1-2-2v-6A2,2,0,0,1,1091.73,1779Zm12.72,0H1110a2.006,2.006,0,0,1,2,2v6a2.006,2.006,0,0,1-2,2h-5.55a2.006,2.006,0,0,1-2-2v-6A2.006,2.006,0,0,1,1104.45,1779ZM1079,1793h5.55a2.006,2.006,0,0,1,2,2v6a2.006,2.006,0,0,1-2,2H1079a2.006,2.006,0,0,1-2-2v-6A2.006,2.006,0,0,1,1079,1793Zm12.73,0h5.54a2,2,0,0,1,2,2v6a2,2,0,0,1-2,2h-5.54a2,2,0,0,1-2-2v-6A2,2,0,0,1,1091.73,1793Zm12.72,0H1110a2.006,2.006,0,0,1,2,2v6a2.006,2.006,0,0,1-2,2h-5.55a2.006,2.006,0,0,1-2-2v-6A2.006,2.006,0,0,1,1104.45,1793ZM1079,1807h5.55a2.006,2.006,0,0,1,2,2v6a2.006,2.006,0,0,1-2,2H1079a2.006,2.006,0,0,1-2-2v-6A2.006,2.006,0,0,1,1079,1807Zm12.73,0h5.54a2,2,0,0,1,2,2v6a2,2,0,0,1-2,2h-5.54a2,2,0,0,1-2-2v-6A2,2,0,0,1,1091.73,1807Zm12.72,0H1110a2.006,2.006,0,0,1,2,2v6a2.006,2.006,0,0,1-2,2h-5.55a2.006,2.006,0,0,1-2-2v-6A2.006,2.006,0,0,1,1104.45,1807Z" style="stroke: inherit; filter: none; fill: inherit"/>
  </g>
  <use transform="translate(-1062.5 -1755.5)" xlink:href="#Rounded_Rectangle_592_copy_4" style="stroke: #0054a6; filter: none; fill: none"/>
</svg>
