<svg xmlns="http://www.w3.org/2000/svg" xmlns:xlink="http://www.w3.org/1999/xlink" width="37" height="44" viewBox="0 0 37 44">
  <metadata><?xpacket begin="﻿" id="W5M0MpCehiHzreSzNTczkc9d"?>
<x:xmpmeta xmlns:x="adobe:ns:meta/" x:xmptk="Adobe XMP Core 5.6-c138 79.159824, 2016/09/14-01:09:01        ">
   <rdf:RDF xmlns:rdf="http://www.w3.org/1999/02/22-rdf-syntax-ns#">
      <rdf:Description rdf:about=""/>
   </rdf:RDF>
</x:xmpmeta>
                                                                                                    
                                                                                                    
                                                                                                    
                                                                                                    
                                                                                                    
                                                                                                    
                                                                                                    
                                                                                                    
                                                                                                    
                                                                                                    
                                                                                                    
                                                                                                    
                                                                                                    
                                                                                                    
                                                                                                    
                                                                                                    
                                                                                                    
                                                                                                    
                                                                                                    
                                                                                                    
                           
<?xpacket end="w"?></metadata>
<defs>
    <style>
      .cls-1 {
        fill-rule: evenodd;
        filter: url(#filter);
      }
    </style>
    <filter id="filter" x="1690" y="928" width="37" height="44" filterUnits="userSpaceOnUse">
      <feFlood result="flood" flood-color="#fff"/>
      <feComposite result="composite" operator="in" in2="SourceGraphic"/>
      <feBlend result="blend" in2="SourceGraphic"/>
    </filter>
  </defs>
  <path id="Forma_1" data-name="Forma 1" class="cls-1" d="M1722.99,962.311l-7.68-3.82a2.1,2.1,0,0,1-1.18-1.892v-2.705c0.18-.225.38-0.48,0.58-0.761a18.458,18.458,0,0,0,2.37-4.639,3.174,3.174,0,0,0,1.88-2.894v-3.2a3.16,3.16,0,0,0-.81-2.1v-4.255a7.135,7.135,0,0,0-1.68-5.22c-1.65-1.874-4.33-2.825-7.97-2.825s-6.32.951-7.97,2.824a7.136,7.136,0,0,0-1.68,5.219V940.3a3.161,3.161,0,0,0-.81,2.1v3.2a3.18,3.18,0,0,0,1.21,2.488,16.817,16.817,0,0,0,2.81,5.789v2.647a2.111,2.111,0,0,1-1.1,1.856l-7.18,3.893a7.209,7.209,0,0,0-3.78,6.336V972h37v-3.234A7.181,7.181,0,0,0,1722.99,962.311Z" transform="translate(-1690 -928)"/>
</svg>
