<?xml version="1.0" encoding="utf-8"?>
<!-- Generator: Adobe Illustrator 21.1.0, SVG Export Plug-In . SVG Version: 6.00 Build 0)  -->
<svg version="1.1" id="Layer_1" xmlns="http://www.w3.org/2000/svg" xmlns:xlink="http://www.w3.org/1999/xlink" x="0px" y="0px"
	 viewBox="0 0 816.4 1024" style="enable-background:new 0 0 816.4 1024;" xml:space="preserve">
<style type="text/css">
	.st0{fill:#006AB4;}
	.st1{fill:#FFFFFF;}
</style>
<g>
	<g>
		<path class="st0" d="M23.4,983.9V514.3c0-11.1,9-20,20.1-20H178V385.5l-41.1,9.2v-41.5l0,0c86.9-20.1,183.4-44.5,269.7-59.2V177.6
			c-42.8,1.3-85.7,24.3-128.5,24.3c0-29,0-58.1,0-87.1c42.8,0,85.7-23,128.5-24.3c0-10-2.5-25.9,11.1-25.9c6.2,0,11.1,5,11.1,11.1
			v217.9c86.3,19.2,170.7,36.7,256.2,56.5v41.5l-27.6-6.2v108.9H792c11.1,0,6.2,9,6.2,20v469.6"/>
		<polygon class="st1" points="178,534.4 35.9,534.4 35.9,983.9 178,983.9 178,534.4 		"/>
		<path class="st1" d="M657.5,534.4v449.5c107.3,0,21,0,128.3,0V534.4H657.5L657.5,534.4z"/>
		<polygon class="st1" points="417.7,332 218.1,376.6 218.1,983.9 617.4,983.9 617.4,376.6 417.7,332 		"/>
		<polygon class="st0" points="510.3,441.7 563.8,441.7 563.8,531.7 510.3,531.7 510.3,441.7 		"/>
		<polygon class="st0" points="390.9,441.7 444.5,441.7 444.5,531.7 390.9,531.7 390.9,441.7 		"/>
		<polygon class="st0" points="271.7,441.7 325.2,441.7 325.2,531.7 271.7,531.7 271.7,441.7 		"/>
		<polygon class="st0" points="510.3,575.4 563.8,575.4 563.8,694.4 510.3,694.4 510.3,575.4 		"/>
		<polygon class="st0" points="510.3,738.1 563.8,738.1 563.8,846 510.3,846 510.3,738.1 		"/>
		<polygon class="st0" points="390.9,575.4 444.5,575.4 444.5,694.4 390.9,694.4 390.9,575.4 		"/>
		<polygon class="st0" points="390.9,738.1 444.5,738.1 444.5,846 390.9,846 390.9,738.1 		"/>
		<polygon class="st0" points="271.7,575.4 325.2,575.4 325.2,694.4 271.7,694.4 271.7,575.4 		"/>
		<polygon class="st0" points="271.7,738.1 325.2,738.1 325.2,846 271.7,846 271.7,738.1 		"/>
		<polygon class="st0" points="698.6,575.4 752.1,575.4 752.1,694.4 698.6,694.4 698.6,575.4 		"/>
		<polygon class="st0" points="698.6,738.1 752.1,738.1 752.1,846 698.6,846 698.6,738.1 		"/>
		<polygon class="st0" points="83.3,575.4 136.9,575.4 136.9,694.4 83.3,694.4 83.3,575.4 		"/>
		<polygon class="st0" points="83.3,738.1 136.9,738.1 136.9,846 83.3,846 83.3,738.1 		"/>
		<g>
			<g>
				<path class="st0" d="M474.1,910.3c0,0-0.1,0-0.1,0H361.6c0,0-0.1,0-0.1,0c-8.6,0-15.6,7-15.7,15.6v82c0,8.8,7,16,15.8,16.1
					h112.4c8.8-0.1,15.8-7.3,15.8-16.1v-82C489.7,917.3,482.7,910.3,474.1,910.3z"/>
			</g>
		</g>
	</g>
	<g>
		<g>
			<path class="st0" d="M727.4,0c-0.3,0-0.5,0-0.8,0H89.7c-0.3,0-0.5,0-0.8,0C40.1-0.2,0.3,39.5,0.1,88.5v844
				c0,49.8,39.9,90.4,89.6,91h636.9c49.7-0.6,89.6-41.2,89.6-91v-844C816,39.5,776.3-0.2,727.4,0z M720.8,41.5
				c29.2-0.6,53.3,22.6,53.9,51.9c0,0.3,0,0.5,0,0.8v846.4l0-13.8c0.1,30.1-23.9,54.7-53.9,55.2H95.6c-30-0.5-54-25.1-53.9-55.2
				c0,0,0-833.1,0-833.4c0.6-29.3,24.7-52.5,53.9-51.9H720.8z"/>
		</g>
	</g>
</g>
</svg>
