<svg xmlns="http://www.w3.org/2000/svg" xmlns:xlink="http://www.w3.org/1999/xlink" width="34" height="44" viewBox="0 0 34 44">
  <metadata><?xpacket begin="﻿" id="W5M0MpCehiHzreSzNTczkc9d"?>
<x:xmpmeta xmlns:x="adobe:ns:meta/" x:xmptk="Adobe XMP Core 5.6-c138 79.159824, 2016/09/14-01:09:01        ">
   <rdf:RDF xmlns:rdf="http://www.w3.org/1999/02/22-rdf-syntax-ns#">
      <rdf:Description rdf:about=""/>
   </rdf:RDF>
</x:xmpmeta>
                                                                                                    
                                                                                                    
                                                                                                    
                                                                                                    
                                                                                                    
                                                                                                    
                                                                                                    
                                                                                                    
                                                                                                    
                                                                                                    
                                                                                                    
                                                                                                    
                                                                                                    
                                                                                                    
                                                                                                    
                                                                                                    
                                                                                                    
                                                                                                    
                                                                                                    
                                                                                                    
                           
<?xpacket end="w"?></metadata>
<defs>
    <style>
      .cls-1 {
        fill-rule: evenodd;
        filter: url(#filter);
      }
    </style>
    <filter id="filter" x="5233" y="8700" width="34" height="44" filterUnits="userSpaceOnUse">
      <feFlood result="flood" flood-color="#313131"/>
      <feComposite result="composite" operator="in" in2="SourceGraphic"/>
      <feBlend result="blend" in2="SourceGraphic"/>
    </filter>
  </defs>
  <path id="Forma_1_copy_3" data-name="Forma 1 copy 3" class="cls-1" d="M5256.45,8700H5233v44h34v-33.3Zm0.42,2.5,7.66,7.77h-7.66v-7.77Zm-22.42,40.03v-41.06h20.98v10.26h10.12v30.8h-31.1Zm5.78-30.06h6.51a0.735,0.735,0,0,0,0-1.47h-6.51A0.735,0.735,0,0,0,5240.23,8712.47Zm12.3,14.66h-12.3a0.735,0.735,0,0,0,0,1.47h12.3A0.735,0.735,0,0,0,5252.53,8727.13Zm7.24-5.13h-5.07a0.735,0.735,0,0,0,0,1.47h5.07A0.735,0.735,0,0,0,5259.77,8722Zm-19.54-3.67h3.62a0.73,0.73,0,0,0,0-1.46h-3.62A0.73,0.73,0,0,0,5240.23,8718.33Zm10.85,0h5.07a0.73,0.73,0,0,0,0-1.46h-5.07A0.73,0.73,0,0,0,5251.08,8718.33Zm-4.34-.73a0.717,0.717,0,0,0,.73.73,0.754,0.754,0,0,0,.51-0.21,0.749,0.749,0,0,0,0-1.04,0.756,0.756,0,0,0-1.03,0A0.779,0.779,0,0,0,5246.74,8717.6Zm-2.89,4.4a0.735,0.735,0,0,0,0,1.47h7.23a0.735,0.735,0,0,0,0-1.47h-7.23Zm-3.62,1.47a0.744,0.744,0,0,0,.52-0.22,0.749,0.749,0,0,0,0-1.04,0.725,0.725,0,0,0-1.24.52,0.779,0.779,0,0,0,.21.52A0.739,0.739,0,0,0,5240.23,8723.47Zm19.54,8.8h-5.07a0.73,0.73,0,0,0,0,1.46h5.07A0.73,0.73,0,0,0,5259.77,8732.27Zm-8.69,0h-7.23a0.73,0.73,0,0,0,0,1.46h7.23A0.73,0.73,0,0,0,5251.08,8732.27Zm-11.36.21a0.742,0.742,0,0,0-.21.52,0.717,0.717,0,0,0,.21.52,0.774,0.774,0,0,0,.51.21,0.76,0.76,0,0,0,.52-0.21,0.779,0.779,0,0,0,.21-0.52,0.718,0.718,0,0,0-.21-0.51A0.746,0.746,0,0,0,5239.72,8732.48Zm19.53-15.4a0.732,0.732,0,0,0,1.03,1.04,0.749,0.749,0,0,0,0-1.04A0.756,0.756,0,0,0,5259.25,8717.08Zm-2.59,11.31a0.779,0.779,0,0,0,.21-0.52,0.76,0.76,0,0,0-.21-0.52,0.724,0.724,0,0,0-1.02,0,0.76,0.76,0,0,0-.21.52,0.779,0.779,0,0,0,.21.52,0.679,0.679,0,0,0,.51.21A0.754,0.754,0,0,0,5256.66,8728.39Zm2.59-1.04a0.76,0.76,0,0,0-.21.52,0.779,0.779,0,0,0,.21.52,0.736,0.736,0,0,0,1.03,0,0.779,0.779,0,0,0,.21-0.52,0.76,0.76,0,0,0-.21-0.52A0.736,0.736,0,0,0,5259.25,8727.35Z" transform="translate(-5233 -8700)"/>
</svg>
