<svg id="Layer_1" data-name="Layer 1" xmlns="http://www.w3.org/2000/svg" viewBox="0 0 59.11 69.31"><defs><style>.cls-1{fill:#0054a6;stroke:#0054a6;stroke-miterlimit:10;stroke-width:0.75px;}</style></defs><title>nextevent-thick1</title><path id="Rounded_Rectangle_592_copy_4" data-name="Rounded Rectangle 592 copy 4" class="cls-1" d="M12.5,7.84a9.57,9.57,0,0,0-9.61,9.49V62A9.57,9.57,0,0,0,12.5,71.5H51.63A9.57,9.57,0,0,0,61.24,62V17.33a9.57,9.57,0,0,0-9.61-9.49H44.89V4a1.07,1.07,0,1,0-2.14,0h0V7.84H33.13V4A1.07,1.07,0,1,0,31,4V7.84H21.38V4a1.07,1.07,0,0,0-2.13,0V7.84ZM51.63,9.95a7.44,7.44,0,0,1,7.48,7.38V62h0a7.43,7.43,0,0,1-7.48,7.38H12.5A7.43,7.43,0,0,1,5,62V17.33A7.44,7.44,0,0,1,12.5,9.95h6.74V13a1.07,1.07,0,0,0,2.13,0V9.95H31V13a1.07,1.07,0,0,0,2.13,0V9.95h9.62V13a1.07,1.07,0,0,0,2.14,0V9.95ZM17.71,24.26h5.14a1.86,1.86,0,0,1,1.85,1.85v5.56a1.86,1.86,0,0,1-1.85,1.85H17.71a1.86,1.86,0,0,1-1.85-1.85V26.11A1.86,1.86,0,0,1,17.71,24.26Zm11.79,0h5.13a1.85,1.85,0,0,1,1.85,1.85v5.56a1.85,1.85,0,0,1-1.85,1.85H29.5a1.85,1.85,0,0,1-1.85-1.85V26.11A1.85,1.85,0,0,1,29.5,24.26Zm11.78,0h5.14a1.86,1.86,0,0,1,1.85,1.85v5.56a1.86,1.86,0,0,1-1.85,1.85H41.28a1.86,1.86,0,0,1-1.85-1.85V26.11A1.86,1.86,0,0,1,41.28,24.26Zm-23.57,13h5.14a1.86,1.86,0,0,1,1.85,1.85v5.56a1.86,1.86,0,0,1-1.85,1.85H17.71a1.86,1.86,0,0,1-1.85-1.85V39.08A1.86,1.86,0,0,1,17.71,37.23Zm11.79,0h5.13a1.85,1.85,0,0,1,1.85,1.85v5.56a1.85,1.85,0,0,1-1.85,1.85H29.5a1.85,1.85,0,0,1-1.85-1.85V39.08A1.85,1.85,0,0,1,29.5,37.23Zm11.78,0h5.14a1.86,1.86,0,0,1,1.85,1.85v5.56a1.86,1.86,0,0,1-1.85,1.85H41.28a1.86,1.86,0,0,1-1.85-1.85V39.08A1.86,1.86,0,0,1,41.28,37.23Zm-23.57,13h5.14A1.86,1.86,0,0,1,24.7,52v5.56a1.86,1.86,0,0,1-1.85,1.85H17.71a1.86,1.86,0,0,1-1.85-1.85V52A1.86,1.86,0,0,1,17.71,50.2Zm11.79,0h5.13A1.85,1.85,0,0,1,36.48,52v5.56a1.85,1.85,0,0,1-1.85,1.85H29.5a1.85,1.85,0,0,1-1.85-1.85V52A1.85,1.85,0,0,1,29.5,50.2Zm11.78,0h5.14A1.86,1.86,0,0,1,48.28,52v5.56a1.86,1.86,0,0,1-1.85,1.85H41.28a1.86,1.86,0,0,1-1.85-1.85V52A1.86,1.86,0,0,1,41.28,50.2Z" transform="translate(-2.51 -2.57)"/></svg>