<svg xmlns="http://www.w3.org/2000/svg" xmlns:xlink="http://www.w3.org/1999/xlink" width="63" height="74" viewBox="0 0 63 74">
  <metadata><?xpacket begin="﻿" id="W5M0MpCehiHzreSzNTczkc9d"?>
<x:xmpmeta xmlns:x="adobe:ns:meta/" x:xmptk="Adobe XMP Core 5.6-c138 79.159824, 2016/09/14-01:09:01        ">
   <rdf:RDF xmlns:rdf="http://www.w3.org/1999/02/22-rdf-syntax-ns#">
      <rdf:Description rdf:about=""/>
   </rdf:RDF>
</x:xmpmeta>
                                                                                                    
                                                                                                    
                                                                                                    
                                                                                                    
                                                                                                    
                                                                                                    
                                                                                                    
                                                                                                    
                                                                                                    
                                                                                                    
                                                                                                    
                                                                                                    
                                                                                                    
                                                                                                    
                                                                                                    
                                                                                                    
                                                                                                    
                                                                                                    
                                                                                                    
                                                                                                    
                           
<?xpacket end="w"?></metadata>
<defs>
    <style>
      .cls-1 {
        fill-rule: evenodd;
        filter: url(#filter);
      }
    </style>
    <filter id="filter" x="1063" y="1570" width="63" height="74" filterUnits="userSpaceOnUse">
      <feFlood result="flood" flood-color="#0054a6"/>
      <feComposite result="composite" operator="in" in2="SourceGraphic"/>
      <feBlend result="blend" in2="SourceGraphic"/>
    </filter>
  </defs>
  <path id="Forma_1" data-name="Forma 1" class="cls-1" d="M1114.96,1600.75h-24.03a0.92,0.92,0,1,1,0-1.84h24.03A0.92,0.92,0,1,1,1114.96,1600.75Zm0,20.19h-24.03a0.92,0.92,0,1,1,0-1.84h24.03A0.92,0.92,0,1,1,1114.96,1620.94Zm0.66-45.67h-0.93v-4.13a1.155,1.155,0,0,0-2.31,0v4.13h-4.03v-4.13a1.155,1.155,0,0,0-2.31,0v4.13H1102v-4.13a1.155,1.155,0,0,0-2.31,0v4.13h-4.04v-4.13a1.15,1.15,0,0,0-2.3,0v4.13h-4.04v-4.13a1.155,1.155,0,0,0-2.31,0v4.13h-4.04v-4.13a1.15,1.15,0,0,0-2.3,0v4.13h-4.04v-4.13a1.155,1.155,0,0,0-2.31,0v4.13h-0.93a10.331,10.331,0,0,0-10.38,10.25v48.23a10.331,10.331,0,0,0,10.38,10.25h42.24a10.331,10.331,0,0,0,10.38-10.25v-48.23A10.331,10.331,0,0,0,1115.62,1575.27Zm8.07,58.48a8.026,8.026,0,0,1-8.07,7.97h-42.24a8.026,8.026,0,0,1-8.07-7.97v-48.23a8.032,8.032,0,0,1,8.07-7.97h0.93v3.31a1.155,1.155,0,0,0,2.31,0v-3.31h4.04v3.31a1.15,1.15,0,0,0,2.3,0v-3.31H1087v3.31a1.155,1.155,0,0,0,2.31,0v-3.31h4.04v3.31a1.15,1.15,0,0,0,2.3,0v-3.31h4.04v3.31a1.155,1.155,0,0,0,2.31,0v-3.31h4.04v3.31a1.155,1.155,0,0,0,2.31,0v-3.31h4.03v3.31a1.155,1.155,0,0,0,2.31,0v-3.31h0.93a8.032,8.032,0,0,1,8.07,7.97v48.23h0Zm-39.23-38.28-5.68,8.96a1.145,1.145,0,0,1-.75.51,0.82,0.82,0,0,1-.22.02,1.224,1.224,0,0,1-.67-0.2l-4.71-3.3a1.128,1.128,0,0,1-.27-1.59,1.172,1.172,0,0,1,1.61-.27l3.71,2.6,5.02-7.94a1.16,1.16,0,0,1,1.59-.36A1.137,1.137,0,0,1,1084.46,1595.47Zm0,20.22-5.68,8.96a1.145,1.145,0,0,1-.75.51,0.82,0.82,0,0,1-.22.02,1.156,1.156,0,0,1-.67-0.21l-4.71-3.29a1.128,1.128,0,0,1-.27-1.59,1.172,1.172,0,0,1,1.61-.27l3.71,2.6,5.02-7.94a1.16,1.16,0,0,1,1.59-.36A1.137,1.137,0,0,1,1084.46,1615.69Z" transform="translate(-1063 -1570)"/>
</svg>
